<?xml version="1.0" encoding="UTF-8" standalone="no"?>
<!-- Created with Inkscape (http://www.inkscape.org/) -->

<svg
   version="1.1"
   id="svg2"
   width="800"
   height="533.33331"
   viewBox="0 0 800 533.33331"
   sodipodi:docname="34293835_blue_technical_background_1.eps"
   xmlns:inkscape="http://www.inkscape.org/namespaces/inkscape"
   xmlns:sodipodi="http://sodipodi.sourceforge.net/DTD/sodipodi-0.dtd"
   xmlns="http://www.w3.org/2000/svg"
   xmlns:svg="http://www.w3.org/2000/svg">
  <defs
     id="defs6">
    <linearGradient
       x1="0"
       y1="0"
       x2="1"
       y2="0"
       gradientUnits="userSpaceOnUse"
       gradientTransform="matrix(-8107.67,-6180.44,-6180.44,8107.67,7814.8,5670.3)"
       spreadMethod="pad"
       id="linearGradient16">
      <stop
         style="stop-opacity:1;stop-color:#1b2b4f"
         offset="0"
         id="stop12" />
      <stop
         style="stop-opacity:1;stop-color:#131628"
         offset="1"
         id="stop14" />
    </linearGradient>
  </defs>
  <sodipodi:namedview
     id="namedview4"
     pagecolor="#ffffff"
     bordercolor="#000000"
     borderopacity="0.25"
     inkscape:showpageshadow="2"
     inkscape:pageopacity="0.0"
     inkscape:pagecheckerboard="0"
     inkscape:deskcolor="#d1d1d1" />
  <g
     id="g8"
     inkscape:groupmode="layer"
     inkscape:label="ink_ext_XXXXXX"
     transform="matrix(1.3333333,0,0,-1.3333333,0,533.33333)">
    <g
       id="g10"
       transform="scale(0.1)">
      <path
         d="M 6000,4000 V 0 H 0 v 4000 h 6000"
         style="fill:url(#linearGradient16);fill-opacity:1;fill-rule:nonzero;stroke:none"
         id="path18" />
      <path
         d="m 1698.3,1414.5 c -9,-6.7 -20,-9.4 -31.1,-7.8 -11,1.6 -20.8,7.5 -27.4,16.4 -13.8,18.6 -9.9,44.8 8.6,58.6 7.5,5.6 16.2,8.2 24.9,8.2 12.8,0 25.5,-5.8 33.7,-16.9 13.7,-18.5 9.8,-44.8 -8.7,-58.5 z m 16.7,64.5 c -17.1,23 -49.6,27.7 -72.5,10.7 -21.6,-16 -26.9,-45.6 -13.4,-68.1 L 0,247.199 V 234.801 L 1635.1,1413.5 c 8,-8.9 18.6,-14.9 30.7,-16.7 2.5,-0.4 5.1,-0.6 7.7,-0.6 11,0 21.7,3.6 30.8,10.3 22.9,17 27.7,49.5 10.7,72.5"
         style="fill:#23467b;fill-opacity:1;fill-rule:nonzero;stroke:none"
         id="path20" />
      <path
         d="m 1384,1357 c -1.6,-11.1 -7.5,-20.9 -16.5,-27.5 -18.5,-13.8 -44.7,-9.9 -58.5,8.6 -6.7,9 -9.4,20 -7.8,31.1 1.6,11.1 7.5,20.8 16.5,27.5 7.3,5.4 15.9,8.2 24.8,8.2 2.1,0 4.2,-0.1 6.2,-0.4 11.1,-1.6 20.8,-7.5 27.5,-16.5 6.7,-8.9 9.4,-20 7.8,-31 z m 0.2,37 c -8.2,11.1 -20.3,18.4 -34,20.4 -13.7,2 -27.4,-1.4 -38.5,-9.7 -11.1,-8.2 -18.4,-20.3 -20.4,-34 -1.8,-12 0.9,-23.9 7,-34.2 L 0,403.602 V 391.398 L 1304.1,1328.4 c 10.1,-11.2 24.3,-17.2 38.6,-17.2 10.7,0 21.5,3.4 30.8,10.2 11.1,8.3 18.4,20.4 20.4,34.1 2,13.7 -1.4,27.4 -9.7,38.5"
         style="fill:#23467b;fill-opacity:1;fill-rule:nonzero;stroke:none"
         id="path22" />
      <path
         d="m 1279.8,622.398 c -18.5,-13.796 -44.8,-9.898 -58.5,8.602 -13.8,18.602 -9.9,44.801 8.6,58.602 7.5,5.597 16.2,8.199 24.9,8.199 12.8,0 25.5,-5.801 33.7,-16.903 13.7,-18.5 9.8,-44.796 -8.7,-58.5 z m 16.7,64.5 c -17,23 -49.6,27.801 -72.5,10.704 -21.6,-16 -26.9,-45.602 -13.4,-68.102 L 328.496,0 h 17.305 L 1216.4,621.301 c 10.1,-11.199 24.2,-17.102 38.5,-17.102 10.8,0 21.6,3.301 30.9,10.199 22.9,17 27.7,49.5 10.7,72.5"
         style="fill:#23467b;fill-opacity:1;fill-rule:nonzero;stroke:none"
         id="path24" />
      <path
         d="m 1638.4,189.102 c -1.7,-11.102 -7.5,-20.903 -16.5,-27.5 -9,-6.704 -20,-9.5 -31,-7.801 -11.1,1.597 -20.9,7.5 -27.5,16.398 -6.7,9 -9.5,20 -7.8,31.102 1.6,11.097 7.5,20.801 16.4,27.5 7.5,5.5 16.3,8.199 24.9,8.199 12.8,0 25.5,-5.801 33.7,-16.898 6.6,-8.903 9.4,-20 7.8,-31 z m 0.2,37 c -17,23 -49.6,27.796 -72.5,10.699 -11.1,-8.199 -18.4,-20.301 -20.4,-34 -1.8,-12 0.9,-23.903 7,-34.102 L 1316.3,0 h 17.4 l 225,160.602 c 8,-8.903 18.6,-14.903 30.7,-16.704 2.6,-0.398 5.1,-0.597 7.7,-0.597 11,0 21.7,3.5 30.8,10.301 11.1,8.199 18.3,20.296 20.4,34 2,13.699 -1.4,27.398 -9.7,38.5"
         style="fill:#23467b;fill-opacity:1;fill-rule:nonzero;stroke:none"
         id="path26" />
      <path
         d="m 1866.4,825.102 c -1.7,-11 -7.5,-20.801 -16.5,-27.403 -9,-6.699 -20,-9.5 -31.1,-7.801 -11,1.602 -20.8,7.403 -27.4,16.403 -13.8,18.5 -9.9,44.801 8.6,58.597 7.3,5.403 16,8.204 24.9,8.204 2,0 4.1,-0.102 6.2,-0.403 11,-1.699 20.8,-7.5 27.5,-16.5 6.6,-9 9.4,-20 7.8,-31.097 z m 0.2,37.097 c -8.3,11.102 -20.4,18.301 -34.1,20.301 -13.6,2.102 -27.3,-1.301 -38.4,-9.602 -21.6,-16 -26.9,-45.597 -13.4,-68.199 L 661.602,0 h 17.199 L 1786.7,796.699 c 8,-9 18.6,-15 30.7,-16.699 2.6,-0.398 5.1,-0.602 7.7,-0.602 11,0 21.7,3.5 30.8,10.204 11.1,8.296 18.3,20.398 20.4,34.097 2,13.699 -1.4,27.301 -9.7,38.5"
         style="fill:#23467b;fill-opacity:1;fill-rule:nonzero;stroke:none"
         id="path28" />
      <path
         d="m 703.098,1448.9 c -1.703,-11.1 -7.5,-20.8 -16.496,-27.5 -18.504,-13.8 -44.805,-9.9 -58.504,8.6 -6.703,9 -9.493,20.1 -7.793,31.1 1.597,11.1 7.5,20.8 16.394,27.5 7.305,5.4 15.996,8.3 24.903,8.3 2.097,0 4.101,-0.2 6.203,-0.5 10.996,-1.6 20.8,-7.5 27.5,-16.5 6.597,-8.9 9.39,-20 7.793,-31 z m 0.203,37 c -8.301,11.1 -20.305,18.4 -34.004,20.4 -13.699,2 -27.395,-1.4 -38.496,-9.7 -11.199,-8.2 -18.399,-20.3 -20.403,-34 -1.793,-12 0.801,-23.9 7.004,-34.1 L 0,987.898 V 975.5 l 623.203,444.8 c 10.098,-11.2 24.199,-17.1 38.496,-17.1 10.801,0 21.602,3.3 30.899,10.2 11.101,8.2 18.3,20.3 20.398,34 2.004,13.7 -1.394,27.4 -9.695,38.5"
         style="fill:#23467b;fill-opacity:1;fill-rule:nonzero;stroke:none"
         id="path30" />
      <path
         d="m 328.895,2177 c -1.59,-11 -7.5,-20.8 -16.493,-27.5 -18.507,-13.7 -44.804,-9.8 -58.507,8.7 -6.7,9 -9.391,20 -7.79,31.1 1.59,11 7.5,20.8 16.395,27.4 7.305,5.5 15.996,8.3 24.902,8.3 2.102,0 4.102,-0.1 6.203,-0.5 11.09,-1.6 20.797,-7.4 27.5,-16.4 6.7,-9 9.391,-20 7.79,-31.1 z m 0.207,37.1 c -8.204,11.1 -20.301,18.3 -34.004,20.3 -13.703,2.1 -27.403,-1.4 -38.496,-9.6 -11.106,-8.3 -18.399,-20.4 -20.403,-34.1 -1.797,-12 0.903,-23.8 7.004,-34.1 L 0,1983 v -12.2 l 249.004,177.7 c 10.098,-11.2 24.199,-17.2 38.594,-17.2 10.703,0 21.504,3.3 30.8,10.2 11.106,8.3 18.399,20.4 20.403,34.1 2,13.7 -1.399,27.3 -9.699,38.5"
         style="fill:#23467b;fill-opacity:1;fill-rule:nonzero;stroke:none"
         id="path32" />
      <path
         d="m 1035.8,1943.9 c -1.6,-11.1 -7.5,-20.8 -16.5,-27.5 -18.5,-13.8 -44.796,-9.9 -58.499,8.6 -6.699,9 -9.5,20.1 -7.805,31.1 1.606,11.1 7.5,20.8 16.406,27.5 7.297,5.4 15.996,8.3 24.895,8.3 2.098,0 4.101,-0.2 6.203,-0.5 11.1,-1.6 20.8,-7.5 27.5,-16.4 6.7,-9 9.4,-20.1 7.8,-31.1 z m 0.2,37 c -8.2,11.1 -20.3,18.4 -34,20.4 -13.699,2 -27.398,-1.4 -38.504,-9.7 -11.094,-8.2 -18.398,-20.3 -20.398,-34 -1.797,-12 0.906,-23.9 7,-34.1 L 0,1240.3 v -12.4 l 955.898,687.4 c 10.098,-11.2 24.2,-17.1 38.606,-17.1 10.696,0 21.496,3.3 30.796,10.2 11.1,8.2 18.4,20.3 20.4,34 2,13.7 -1.4,27.4 -9.7,38.5"
         style="fill:#23467b;fill-opacity:1;fill-rule:nonzero;stroke:none"
         id="path34" />
      <path
         d="m 1074.2,2176.5 c -18.5,-13.7 -44.8,-9.8 -58.5,8.7 -13.8,18.5 -9.9,44.8 8.6,58.5 18.5,13.8 44.8,9.9 58.6,-8.6 13.7,-18.5 9.8,-44.8 -8.7,-58.6 z m 16.7,64.5 c -17.1,23 -49.6,27.8 -72.6,10.8 -21.503,-16 -26.796,-45.6 -13.3,-68.2 L 0,1459.4 v -12.3 l 1010.8,728.3 c 10.1,-11.2 24.2,-17.1 38.5,-17.1 10.8,0 21.6,3.3 30.9,10.2 22.9,17 27.7,49.6 10.7,72.5"
         style="fill:#23467b;fill-opacity:1;fill-rule:nonzero;stroke:none"
         id="path36" />
      <path
         d="m 1584,1037.9 c -18.5,-13.8 -44.8,-9.9 -58.5,8.6 -6.7,9 -9.5,20.1 -7.8,31.1 1.6,11.1 7.5,20.8 16.4,27.5 7.5,5.6 16.3,8.2 24.9,8.2 12.8,0 25.5,-5.8 33.7,-16.9 13.7,-18.5 9.9,-44.8 -8.7,-58.5 z m 16.7,64.5 c -17,23 -49.6,27.8 -72.5,10.7 -11.1,-8.2 -18.4,-20.3 -20.4,-34 v -0.1 l -116.7,5.7 L 0,86.1992 V 73.8008 L 1394.1,1074.5 1507.3,1069 c 0.5,-10.2 3.9,-20 10.2,-28.4 10.1,-13.7 25.8,-20.9 41.6,-20.9 10.8,0 21.6,3.3 30.9,10.2 22.9,17 27.8,49.5 10.7,72.5"
         style="fill:#23467b;fill-opacity:1;fill-rule:nonzero;stroke:none"
         id="path38" />
      <path
         d="m 1977.9,1096.9 c -18.5,-13.8 -44.8,-9.9 -58.6,8.6 -13.7,18.6 -9.9,44.8 8.7,58.6 7.3,5.4 15.9,8.2 24.8,8.2 2.1,0 4.2,-0.1 6.2,-0.4 11.1,-1.6 20.9,-7.5 27.5,-16.5 13.8,-18.5 9.9,-44.8 -8.6,-58.5 z m 16.7,64.5 c -8.3,11.1 -20.4,18.4 -34.1,20.4 -13.7,2 -27.4,-1.4 -38.5,-9.7 -21.6,-16 -26.9,-45.6 -13.3,-68.2 l -399.1,-296.298 -243.7,36 -2,0.296 L 84.4063,0 H 101.602 L 1266.4,833.398 1512.2,797.102 1914.5,1095.7 c 10.1,-11.1 24.2,-17 38.5,-17 10.7,0 21.6,3.3 30.8,10.1 23,17.1 27.8,49.6 10.8,72.6"
         style="fill:#23467b;fill-opacity:1;fill-rule:nonzero;stroke:none"
         id="path40" />
      <path
         d="m 2278.1,692.5 c -18.5,-13.801 -44.8,-9.898 -58.6,8.602 -13.7,18.597 -9.8,44.796 8.7,58.597 7.3,5.403 15.9,8.301 24.9,8.301 2,0 4.1,-0.199 6.2,-0.5 11,-1.602 20.8,-7.5 27.4,-16.5 13.8,-18.5 9.9,-44.699 -8.6,-58.5 z m 16.7,64.5 c -8.3,11.102 -20.4,18.398 -34.1,20.398 -13.7,2 -27.3,-1.398 -38.5,-9.699 -21.5,-16 -26.8,-45.597 -13.3,-68.199 l -399.1,-296.301 -243.7,36 -2,0.301 L 949.805,0 h 17.199 l 599.596,429 245.9,-36.301 402.2,298.699 c 10.1,-11.199 24.2,-17.097 38.5,-17.097 10.8,0 21.6,3.301 30.9,10.199 22.9,17 27.7,49.602 10.7,72.5"
         style="fill:#23467b;fill-opacity:1;fill-rule:nonzero;stroke:none"
         id="path42" />
      <path
         d="m 1220.8,1527.2 c -18.6,-13.8 -44.8,-9.9 -58.6,8.6 -6.7,9 -9.4,20.1 -7.8,31.1 1.6,11.1 7.5,20.8 16.5,27.5 7.4,5.6 16.2,8.2 24.9,8.2 12.8,0 25.4,-5.8 33.6,-16.8 13.8,-18.6 9.9,-44.8 -8.6,-58.6 z m 16.6,64.5 c -17,23 -49.6,27.8 -72.5,10.7 -11.1,-8.2 -18.4,-20.3 -20.4,-34 -2,-13.7 1.4,-27.4 9.7,-38.5 6.3,-8.6 14.9,-14.6 24.3,-17.9 L 1151,1402.1 0,575.801 V 563.5 l 1158.3,831.5 1.5,1.1 28.4,113.5 c 2.5,-0.4 5.1,-0.6 7.7,-0.6 10.7,0 21.6,3.3 30.8,10.2 23,17 27.8,49.6 10.7,72.5"
         style="fill:#23467b;fill-opacity:1;fill-rule:nonzero;stroke:none"
         id="path44" />
      <path
         d="m 644.402,2199.5 c -9.004,-6.6 -20,-9.4 -31.101,-7.8 -10.996,1.7 -20.801,7.5 -27.5,16.5 -6.602,9 -9.406,20 -7.805,31.1 1.699,11 7.5,20.8 16.508,27.4 7.5,5.6 16.199,8.3 24.898,8.3 12.793,0 25.403,-5.9 33.594,-16.9 13.801,-18.5 9.902,-44.8 -8.594,-58.6 z m 16.703,64.6 c -17.101,22.9 -49.601,27.7 -72.609,10.7 -11.094,-8.3 -18.301,-20.4 -20.398,-34.1 -1.993,-13.7 1.406,-27.3 9.707,-38.5 6.199,-8.4 14.695,-14.5 24.297,-17.9 L 574.602,2074.4 0,1661.9 v -12.3 l 582.004,417.8 1.394,1 28.399,113.5 c 2.605,-0.4 5.207,-0.6 7.707,-0.6 11.094,0 21.797,3.5 30.801,10.2 22.996,17.1 27.793,49.6 10.8,72.6"
         style="fill:#23467b;fill-opacity:1;fill-rule:nonzero;stroke:none"
         id="path46" />
      <path
         d="m 1379.9,1951.9 c -1.6,-11 -7.5,-20.8 -16.4,-27.4 -18.6,-13.8 -44.8,-9.9 -58.6,8.6 -6.7,9 -9.4,20 -7.8,31.1 1.6,11 7.5,20.8 16.5,27.5 7.3,5.4 15.9,8.2 24.8,8.2 2.1,0 4.2,-0.1 6.2,-0.4 11.1,-1.7 20.8,-7.5 27.5,-16.5 6.7,-9 9.4,-20 7.8,-31.1 z m 0.2,37.1 c -8.2,11.1 -20.3,18.3 -34,20.4 -13.6,2 -27.4,-1.4 -38.5,-9.7 -11.1,-8.3 -18.4,-20.3 -20.4,-34 -1.8,-12.1 0.9,-24 7.1,-34.2 L 901.301,1639.7 858.496,1383.1 0,768.898 v -12.296 l 865.996,619.598 1.602,1.2 42.898,256.7 389.604,289.2 c 10.1,-11.1 24.2,-17.1 38.5,-17.1 10.7,0 21.5,3.4 30.8,10.2 11.1,8.3 18.4,20.4 20.4,34.1 2,13.7 -1.4,27.4 -9.7,38.5"
         style="fill:#23467b;fill-opacity:1;fill-rule:nonzero;stroke:none"
         id="path48" />
      <path
         d="m 1698.3,1414.5 c -9,-6.7 -20,-9.4 -31.1,-7.8 -11,1.6 -20.8,7.5 -27.4,16.4 -13.8,18.6 -9.9,44.8 8.6,58.6 7.5,5.6 16.2,8.2 24.9,8.2 12.8,0 25.5,-5.8 33.7,-16.9 13.7,-18.5 9.8,-44.8 -8.7,-58.5 z m 16.7,64.5 c -17.1,23 -49.6,27.7 -72.5,10.7 -21.6,-16 -26.9,-45.6 -13.4,-68.1 L 0,247.199 V 234.801 L 1635.1,1413.5 c 8,-8.9 18.6,-14.9 30.7,-16.7 2.5,-0.4 5.1,-0.6 7.7,-0.6 11,0 21.7,3.6 30.8,10.3 22.9,17 27.7,49.5 10.7,72.5"
         style="fill:#23467b;fill-opacity:1;fill-rule:nonzero;stroke:none"
         id="path50" />
      <path
         d="m 1384,1357 c -1.6,-11.1 -7.5,-20.9 -16.5,-27.5 -18.5,-13.8 -44.7,-9.9 -58.5,8.6 -6.7,9 -9.4,20 -7.8,31.1 1.6,11.1 7.5,20.8 16.5,27.5 7.3,5.4 15.9,8.2 24.8,8.2 2.1,0 4.2,-0.1 6.2,-0.4 11.1,-1.6 20.8,-7.5 27.5,-16.5 6.7,-8.9 9.4,-20 7.8,-31 z m 0.2,37 c -8.2,11.1 -20.3,18.4 -34,20.4 -13.7,2 -27.4,-1.4 -38.5,-9.7 -11.1,-8.2 -18.4,-20.3 -20.4,-34 -1.8,-12 0.9,-23.9 7,-34.2 L 0,403.602 V 391.398 L 1304.1,1328.4 c 10.1,-11.2 24.3,-17.2 38.6,-17.2 10.7,0 21.5,3.4 30.8,10.2 11.1,8.3 18.4,20.4 20.4,34.1 2,13.7 -1.4,27.4 -9.7,38.5"
         style="fill:#23467b;fill-opacity:1;fill-rule:nonzero;stroke:none"
         id="path52" />
      <path
         d="m 1279.8,622.398 c -18.5,-13.796 -44.8,-9.898 -58.5,8.602 -13.8,18.602 -9.9,44.801 8.6,58.602 7.5,5.597 16.2,8.199 24.9,8.199 12.8,0 25.5,-5.801 33.7,-16.903 13.7,-18.5 9.8,-44.796 -8.7,-58.5 z m 16.7,64.5 c -17,23 -49.6,27.801 -72.5,10.704 -21.6,-16 -26.9,-45.602 -13.4,-68.102 L 328.496,0 h 17.305 L 1216.4,621.301 c 10.1,-11.199 24.2,-17.102 38.5,-17.102 10.8,0 21.6,3.301 30.9,10.199 22.9,17 27.7,49.5 10.7,72.5"
         style="fill:#23467b;fill-opacity:1;fill-rule:nonzero;stroke:none"
         id="path54" />
      <path
         d="m 1638.4,189.102 c -1.7,-11.102 -7.5,-20.903 -16.5,-27.5 -9,-6.704 -20,-9.5 -31,-7.801 -11.1,1.597 -20.9,7.5 -27.5,16.398 -6.7,9 -9.5,20 -7.8,31.102 1.6,11.097 7.5,20.801 16.4,27.5 7.5,5.5 16.3,8.199 24.9,8.199 12.8,0 25.5,-5.801 33.7,-16.898 6.6,-8.903 9.4,-20 7.8,-31 z m 0.2,37 c -17,23 -49.6,27.796 -72.5,10.699 -11.1,-8.199 -18.4,-20.301 -20.4,-34 -1.8,-12 0.9,-23.903 7,-34.102 L 1316.3,0 h 17.4 l 225,160.602 c 8,-8.903 18.6,-14.903 30.7,-16.704 2.6,-0.398 5.1,-0.597 7.7,-0.597 11,0 21.7,3.5 30.8,10.301 11.1,8.199 18.3,20.296 20.4,34 2,13.699 -1.4,27.398 -9.7,38.5"
         style="fill:#23467b;fill-opacity:1;fill-rule:nonzero;stroke:none"
         id="path56" />
      <path
         d="m 1866.4,825.102 c -1.7,-11 -7.5,-20.801 -16.5,-27.403 -9,-6.699 -20,-9.5 -31.1,-7.801 -11,1.602 -20.8,7.403 -27.4,16.403 -13.8,18.5 -9.9,44.801 8.6,58.597 7.3,5.403 16,8.204 24.9,8.204 2,0 4.1,-0.102 6.2,-0.403 11,-1.699 20.8,-7.5 27.5,-16.5 6.6,-9 9.4,-20 7.8,-31.097 z m 0.2,37.097 c -8.3,11.102 -20.4,18.301 -34.1,20.301 -13.6,2.102 -27.3,-1.301 -38.4,-9.602 -21.6,-16 -26.9,-45.597 -13.4,-68.199 L 661.602,0 h 17.199 L 1786.7,796.699 c 8,-9 18.6,-15 30.7,-16.699 2.6,-0.398 5.1,-0.602 7.7,-0.602 11,0 21.7,3.5 30.8,10.204 11.1,8.296 18.3,20.398 20.4,34.097 2,13.699 -1.4,27.301 -9.7,38.5"
         style="fill:#23467b;fill-opacity:1;fill-rule:nonzero;stroke:none"
         id="path58" />
      <path
         d="m 703.098,1448.9 c -1.703,-11.1 -7.5,-20.8 -16.496,-27.5 -18.504,-13.8 -44.805,-9.9 -58.504,8.6 -6.703,9 -9.493,20.1 -7.793,31.1 1.597,11.1 7.5,20.8 16.394,27.5 7.305,5.4 15.996,8.3 24.903,8.3 2.097,0 4.101,-0.2 6.203,-0.5 10.996,-1.6 20.8,-7.5 27.5,-16.5 6.597,-8.9 9.39,-20 7.793,-31 z m 0.203,37 c -8.301,11.1 -20.305,18.4 -34.004,20.4 -13.699,2 -27.395,-1.4 -38.496,-9.7 -11.199,-8.2 -18.399,-20.3 -20.403,-34 -1.793,-12 0.801,-23.9 7.004,-34.1 L 0,987.898 V 975.5 l 623.203,444.8 c 10.098,-11.2 24.199,-17.1 38.496,-17.1 10.801,0 21.602,3.3 30.899,10.2 11.101,8.2 18.3,20.3 20.398,34 2.004,13.7 -1.394,27.4 -9.695,38.5"
         style="fill:#23467b;fill-opacity:1;fill-rule:nonzero;stroke:none"
         id="path60" />
      <path
         d="m 328.895,2177 c -1.59,-11 -7.5,-20.8 -16.493,-27.5 -18.507,-13.7 -44.804,-9.8 -58.507,8.7 -6.7,9 -9.391,20 -7.79,31.1 1.59,11 7.5,20.8 16.395,27.4 7.305,5.5 15.996,8.3 24.902,8.3 2.102,0 4.102,-0.1 6.203,-0.5 11.09,-1.6 20.797,-7.4 27.5,-16.4 6.7,-9 9.391,-20 7.79,-31.1 z m 0.207,37.1 c -8.204,11.1 -20.301,18.3 -34.004,20.3 -13.703,2.1 -27.403,-1.4 -38.496,-9.6 -11.106,-8.3 -18.399,-20.4 -20.403,-34.1 -1.797,-12 0.903,-23.8 7.004,-34.1 L 0,1983 v -12.2 l 249.004,177.7 c 10.098,-11.2 24.199,-17.2 38.594,-17.2 10.703,0 21.504,3.3 30.8,10.2 11.106,8.3 18.399,20.4 20.403,34.1 2,13.7 -1.399,27.3 -9.699,38.5"
         style="fill:#23467b;fill-opacity:1;fill-rule:nonzero;stroke:none"
         id="path62" />
      <path
         d="m 1035.8,1943.9 c -1.6,-11.1 -7.5,-20.8 -16.5,-27.5 -18.5,-13.8 -44.796,-9.9 -58.499,8.6 -6.699,9 -9.5,20.1 -7.805,31.1 1.606,11.1 7.5,20.8 16.406,27.5 7.297,5.4 15.996,8.3 24.895,8.3 2.098,0 4.101,-0.2 6.203,-0.5 11.1,-1.6 20.8,-7.5 27.5,-16.4 6.7,-9 9.4,-20.1 7.8,-31.1 z m 0.2,37 c -8.2,11.1 -20.3,18.4 -34,20.4 -13.699,2 -27.398,-1.4 -38.504,-9.7 -11.094,-8.2 -18.398,-20.3 -20.398,-34 -1.797,-12 0.906,-23.9 7,-34.1 L 0,1240.3 v -12.4 l 955.898,687.4 c 10.098,-11.2 24.2,-17.1 38.606,-17.1 10.696,0 21.496,3.3 30.796,10.2 11.1,8.2 18.4,20.3 20.4,34 2,13.7 -1.4,27.4 -9.7,38.5"
         style="fill:#23467b;fill-opacity:1;fill-rule:nonzero;stroke:none"
         id="path64" />
      <path
         d="m 1074.2,2176.5 c -18.5,-13.7 -44.8,-9.8 -58.5,8.7 -13.8,18.5 -9.9,44.8 8.6,58.5 18.5,13.8 44.8,9.9 58.6,-8.6 13.7,-18.5 9.8,-44.8 -8.7,-58.6 z m 16.7,64.5 c -17.1,23 -49.6,27.8 -72.6,10.8 -21.503,-16 -26.796,-45.6 -13.3,-68.2 L 0,1459.4 v -12.3 l 1010.8,728.3 c 10.1,-11.2 24.2,-17.1 38.5,-17.1 10.8,0 21.6,3.3 30.9,10.2 22.9,17 27.7,49.6 10.7,72.5"
         style="fill:#23467b;fill-opacity:1;fill-rule:nonzero;stroke:none"
         id="path66" />
      <path
         d="m 513.098,2504.5 c -18.496,-13.7 -44.797,-9.8 -58.496,8.7 -13.801,18.5 -9.907,44.8 8.601,58.5 18.496,13.8 44.793,9.9 58.594,-8.6 13.699,-18.5 9.805,-44.8 -8.699,-58.6 z m 16.707,64.5 c -17.11,23 -49.61,27.8 -72.61,10.8 -21.492,-16 -26.797,-45.6 -13.3,-68.2 L 0,2191.7 v -12.3 l 449.695,324 c 10.11,-11.2 24.2,-17.1 38.508,-17.1 10.801,0 21.602,3.3 30.899,10.2 22.902,17 27.695,49.6 10.703,72.5"
         style="fill:#23467b;fill-opacity:1;fill-rule:nonzero;stroke:none"
         id="path68" />
      <path
         d="m 1584,1037.9 c -18.5,-13.8 -44.8,-9.9 -58.5,8.6 -6.7,9 -9.5,20.1 -7.8,31.1 1.6,11.1 7.5,20.8 16.4,27.5 7.5,5.6 16.3,8.2 24.9,8.2 12.8,0 25.5,-5.8 33.7,-16.9 13.7,-18.5 9.9,-44.8 -8.7,-58.5 z m 16.7,64.5 c -17,23 -49.6,27.8 -72.5,10.7 -11.1,-8.2 -18.4,-20.3 -20.4,-34 v -0.1 l -116.7,5.7 L 0,86.1992 V 73.8008 L 1394.1,1074.5 1507.3,1069 c 0.5,-10.2 3.9,-20 10.2,-28.4 10.1,-13.7 25.8,-20.9 41.6,-20.9 10.8,0 21.6,3.3 30.9,10.2 22.9,17 27.8,49.5 10.7,72.5"
         style="fill:#23467b;fill-opacity:1;fill-rule:nonzero;stroke:none"
         id="path70" />
      <path
         d="m 1977.9,1096.9 c -18.5,-13.8 -44.8,-9.9 -58.6,8.6 -13.7,18.6 -9.9,44.8 8.7,58.6 7.3,5.4 15.9,8.2 24.8,8.2 2.1,0 4.2,-0.1 6.2,-0.4 11.1,-1.6 20.9,-7.5 27.5,-16.5 13.8,-18.5 9.9,-44.8 -8.6,-58.5 z m 16.7,64.5 c -8.3,11.1 -20.4,18.4 -34.1,20.4 -13.7,2 -27.4,-1.4 -38.5,-9.7 -21.6,-16 -26.9,-45.6 -13.3,-68.2 l -399.1,-296.298 -243.7,36 -2,0.296 L 84.4063,0 H 101.602 L 1266.4,833.398 1512.2,797.102 1914.5,1095.7 c 10.1,-11.1 24.2,-17 38.5,-17 10.7,0 21.6,3.3 30.8,10.1 23,17.1 27.8,49.6 10.8,72.6"
         style="fill:#23467b;fill-opacity:1;fill-rule:nonzero;stroke:none"
         id="path72" />
      <path
         d="m 2278.1,692.5 c -18.5,-13.801 -44.8,-9.898 -58.6,8.602 -13.7,18.597 -9.8,44.796 8.7,58.597 7.3,5.403 15.9,8.301 24.9,8.301 2,0 4.1,-0.199 6.2,-0.5 11,-1.602 20.8,-7.5 27.4,-16.5 13.8,-18.5 9.9,-44.699 -8.6,-58.5 z m 16.7,64.5 c -8.3,11.102 -20.4,18.398 -34.1,20.398 -13.7,2 -27.3,-1.398 -38.5,-9.699 -21.5,-16 -26.8,-45.597 -13.3,-68.199 l -399.1,-296.301 -243.7,36 -2,0.301 L 949.805,0 h 17.199 l 599.596,429 245.9,-36.301 402.2,298.699 c 10.1,-11.199 24.2,-17.097 38.5,-17.097 10.8,0 21.6,3.301 30.9,10.199 22.9,17 27.7,49.602 10.7,72.5"
         style="fill:#23467b;fill-opacity:1;fill-rule:nonzero;stroke:none"
         id="path74" />
      <path
         d="m 1220.8,1527.2 c -18.6,-13.8 -44.8,-9.9 -58.6,8.6 -6.7,9 -9.4,20.1 -7.8,31.1 1.6,11.1 7.5,20.8 16.5,27.5 7.4,5.6 16.2,8.2 24.9,8.2 12.8,0 25.4,-5.8 33.6,-16.8 13.8,-18.6 9.9,-44.8 -8.6,-58.6 z m 16.6,64.5 c -17,23 -49.6,27.8 -72.5,10.7 -11.1,-8.2 -18.4,-20.3 -20.4,-34 -2,-13.7 1.4,-27.4 9.7,-38.5 6.3,-8.6 14.9,-14.6 24.3,-17.9 L 1151,1402.1 0,575.801 V 563.5 l 1158.3,831.5 1.5,1.1 28.4,113.5 c 2.5,-0.4 5.1,-0.6 7.7,-0.6 10.7,0 21.6,3.3 30.8,10.2 23,17 27.8,49.6 10.7,72.5"
         style="fill:#23467b;fill-opacity:1;fill-rule:nonzero;stroke:none"
         id="path76" />
      <path
         d="m 644.402,2199.5 c -9.004,-6.6 -20,-9.4 -31.101,-7.8 -10.996,1.7 -20.801,7.5 -27.5,16.5 -6.602,9 -9.406,20 -7.805,31.1 1.699,11 7.5,20.8 16.508,27.4 7.5,5.6 16.199,8.3 24.898,8.3 12.793,0 25.403,-5.9 33.594,-16.9 13.801,-18.5 9.902,-44.8 -8.594,-58.6 z m 16.703,64.6 c -17.101,22.9 -49.601,27.7 -72.609,10.7 -11.094,-8.3 -18.301,-20.4 -20.398,-34.1 -1.993,-13.7 1.406,-27.3 9.707,-38.5 6.199,-8.4 14.695,-14.5 24.297,-17.9 L 574.602,2074.4 0,1661.9 v -12.3 l 582.004,417.8 1.394,1 28.399,113.5 c 2.605,-0.4 5.207,-0.6 7.707,-0.6 11.094,0 21.797,3.5 30.801,10.2 22.996,17.1 27.793,49.6 10.8,72.6"
         style="fill:#23467b;fill-opacity:1;fill-rule:nonzero;stroke:none"
         id="path78" />
      <path
         d="m 244.402,2649.9 c -9.004,-6.6 -20,-9.4 -31.101,-7.8 -10.996,1.7 -20.801,7.5 -27.5,16.5 -6.602,9 -9.406,20 -7.805,31.1 1.699,11 7.5,20.8 16.508,27.4 7.5,5.6 16.199,8.3 24.898,8.3 12.793,0 25.403,-5.9 33.594,-16.9 13.801,-18.5 9.902,-44.8 -8.594,-58.6 z m 16.703,64.6 c -17.101,22.9 -49.601,27.7 -72.609,10.7 -11.094,-8.3 -18.301,-20.4 -20.398,-34.1 -1.993,-13.7 1.406,-27.3 9.707,-38.5 6.199,-8.4 14.695,-14.5 24.297,-17.9 L 174.602,2524.8 0,2399.5 v -12.4 l 182.004,130.7 1.394,1 28.399,113.5 c 2.605,-0.4 5.207,-0.6 7.707,-0.6 11.094,0 21.797,3.5 30.801,10.2 22.996,17.1 27.793,49.6 10.8,72.6"
         style="fill:#23467b;fill-opacity:1;fill-rule:nonzero;stroke:none"
         id="path80" />
      <path
         d="m 2183.1,109.199 c -18.5,-13.699 -44.8,-9.8006 -58.5,8.699 -13.8,18.5 -9.9,44.801 8.6,58.5 18.5,13.801 44.8,9.903 58.6,-8.597 13.7,-18.5 9.8,-44.801 -8.7,-58.602 z m 16.7,64.5 c -17.1,23 -49.6,27.801 -72.6,10.801 -21.5,-16 -26.8,-45.602 -13.3,-68.199 L 1952.5,0 h 17.2 l 150,108.102 C 2129.8,96.8984 2143.9,91 2158.2,91 c 10.8,0 21.6,3.3008 30.9,10.199 22.9,17 27.7,49.602 10.7,72.5"
         style="fill:#23467b;fill-opacity:1;fill-rule:nonzero;stroke:none"
         id="path82" />
      <path
         d="m 2524.2,54.5 c -18.5,-13.6992 -44.8,-9.8008 -58.5,8.6992 -13.8,18.5 -9.9,44.8008 8.6,58.4998 18.5,13.801 44.8,9.903 58.6,-8.597 13.7,-18.5004 9.8,-44.8012 -8.7,-58.602 z m 16.7,64.5 c -17.1,23 -49.6,27.801 -72.6,10.801 -21.5,-16 -26.8,-45.6018 -13.3,-68.1994 L 2369.5,0 h 17.2 l 74.1,53.3984 c 10.1,-11.1992 24.2,-17.0976 38.5,-17.0976 10.8,0 21.6,3.3008 30.9,10.1992 22.9,17 27.7,49.6016 10.7,72.5"
         style="fill:#23467b;fill-opacity:1;fill-rule:nonzero;stroke:none"
         id="path84" />
      <path
         d="m 1914.4,254.5 c -9,-6.602 -20,-9.398 -31.1,-7.801 -11,1.699 -20.8,7.5 -27.5,16.5 -6.6,9 -9.4,20 -7.8,31.102 1.7,11 7.5,20.801 16.5,27.398 7.5,5.602 16.2,8.301 24.9,8.301 12.8,0 25.4,-5.898 33.6,-16.898 13.8,-18.5 9.9,-44.801 -8.6,-58.602 z m 16.7,64.602 c -17.1,22.898 -49.6,27.699 -72.6,10.699 -11.1,-8.301 -18.3,-20.403 -20.4,-34.102 -2,-13.699 1.4,-27.301 9.7,-38.5 6.2,-8.398 14.7,-14.5 24.3,-17.898 L 1844.6,129.398 1664.3,0 h 17.2 l 170.5,122.398 1.4,1 28.4,113.5 c 2.6,-0.398 5.2,-0.597 7.7,-0.597 11.1,0 21.8,3.5 30.8,10.199 23,17.102 27.8,49.602 10.8,72.602"
         style="fill:#23467b;fill-opacity:1;fill-rule:nonzero;stroke:none"
         id="path86" />
      <path
         d="m 1379.9,1951.9 c -1.6,-11 -7.5,-20.8 -16.4,-27.4 -18.6,-13.8 -44.8,-9.9 -58.6,8.6 -6.7,9 -9.4,20 -7.8,31.1 1.6,11 7.5,20.8 16.5,27.5 7.3,5.4 15.9,8.2 24.8,8.2 2.1,0 4.2,-0.1 6.2,-0.4 11.1,-1.7 20.8,-7.5 27.5,-16.5 6.7,-9 9.4,-20 7.8,-31.1 z m 0.2,37.1 c -8.2,11.1 -20.3,18.3 -34,20.4 -13.6,2 -27.4,-1.4 -38.5,-9.7 -11.1,-8.3 -18.4,-20.3 -20.4,-34 -1.8,-12.1 0.9,-24 7.1,-34.2 L 901.301,1639.7 858.496,1383.1 0,768.898 v -12.296 l 865.996,619.598 1.602,1.2 42.898,256.7 389.604,289.2 c 10.1,-11.1 24.2,-17.1 38.5,-17.1 10.7,0 21.5,3.4 30.8,10.2 11.1,8.3 18.4,20.4 20.4,34.1 2,13.7 -1.4,27.4 -9.7,38.5"
         style="fill:#23467b;fill-opacity:1;fill-rule:nonzero;stroke:none"
         id="path88" />
      <path
         d="m 4301.7,2585.5 c 9,6.7 20,9.4 31.1,7.8 11,-1.6 20.8,-7.5 27.4,-16.4 13.8,-18.6 9.9,-44.8 -8.6,-58.6 -7.5,-5.6 -16.2,-8.2 -24.9,-8.2 -12.8,0 -25.5,5.8 -33.7,16.9 -13.7,18.5 -9.8,44.8 8.7,58.5 z M 4285,2521 c 17.1,-23 49.6,-27.7 72.5,-10.7 21.6,16 26.9,45.6 13.4,68.1 L 6000,3752.8 v 12.4 L 4364.9,2586.5 c -8,8.9 -18.6,14.9 -30.7,16.7 -2.5,0.4 -5.1,0.6 -7.7,0.6 -11,0 -21.7,-3.6 -30.8,-10.3 -22.9,-17 -27.7,-49.5 -10.7,-72.5"
         style="fill:#23467b;fill-opacity:1;fill-rule:nonzero;stroke:none"
         id="path90" />
      <path
         d="m 4616,2643 c 1.6,11.1 7.5,20.9 16.5,27.5 18.5,13.8 44.7,9.9 58.5,-8.6 6.7,-9 9.4,-20 7.8,-31.1 -1.6,-11.1 -7.5,-20.8 -16.5,-27.5 -7.3,-5.4 -15.9,-8.2 -24.8,-8.2 -2.1,0 -4.2,0.1 -6.2,0.4 -11.1,1.6 -20.8,7.5 -27.5,16.5 -6.7,8.9 -9.4,20 -7.8,31 z m -0.2,-37 c 8.2,-11.1 20.3,-18.4 34,-20.4 13.7,-2 27.4,1.4 38.5,9.7 11.1,8.2 18.4,20.3 20.4,34 1.8,12 -0.9,23.9 -7,34.2 L 6000,3596.4 v 12.2 l -1304.1,-937 c -10.1,11.2 -24.3,17.2 -38.6,17.2 -10.7,0 -21.5,-3.4 -30.8,-10.2 -11.1,-8.3 -18.4,-20.4 -20.4,-34.1 -2,-13.7 1.4,-27.4 9.7,-38.5"
         style="fill:#23467b;fill-opacity:1;fill-rule:nonzero;stroke:none"
         id="path92" />
      <path
         d="m 4720.2,3377.6 c 18.5,13.8 44.8,9.9 58.5,-8.6 13.8,-18.6 9.9,-44.8 -8.6,-58.6 -7.5,-5.6 -16.2,-8.2 -24.9,-8.2 -12.8,0 -25.5,5.8 -33.7,16.9 -13.7,18.5 -9.8,44.8 8.7,58.5 z m -16.7,-64.5 c 17,-23 49.6,-27.8 72.5,-10.7 21.6,16 26.9,45.6 13.4,68.1 l 882.1,629.5 h -17.3 l -870.6,-621.3 c -10.1,11.2 -24.2,17.1 -38.5,17.1 -10.8,0 -21.6,-3.3 -30.9,-10.2 -22.9,-17 -27.7,-49.5 -10.7,-72.5"
         style="fill:#23467b;fill-opacity:1;fill-rule:nonzero;stroke:none"
         id="path94" />
      <path
         d="m 4361.6,3810.9 c 1.7,11.1 7.5,20.9 16.5,27.5 9,6.7 20,9.5 31,7.8 11.1,-1.6 20.9,-7.5 27.5,-16.4 6.7,-9 9.5,-20 7.8,-31.1 -1.6,-11.1 -7.5,-20.8 -16.4,-27.5 -7.5,-5.5 -16.3,-8.2 -24.9,-8.2 -12.8,0 -25.5,5.8 -33.7,16.9 -6.6,8.9 -9.4,20 -7.8,31 z m -0.2,-37 c 17,-23 49.6,-27.8 72.5,-10.7 11.1,8.2 18.4,20.3 20.4,34 1.8,12 -0.9,23.9 -7,34.1 l 236.4,168.7 h -17.4 l -225,-160.6 c -8,8.9 -18.6,14.9 -30.7,16.7 -2.6,0.4 -5.1,0.6 -7.7,0.6 -11,0 -21.7,-3.5 -30.8,-10.3 -11.1,-8.2 -18.3,-20.3 -20.4,-34 -2,-13.7 1.4,-27.4 9.7,-38.5"
         style="fill:#23467b;fill-opacity:1;fill-rule:nonzero;stroke:none"
         id="path96" />
      <path
         d="m 4133.6,3174.9 c 1.7,11 7.5,20.8 16.5,27.4 9,6.7 20,9.5 31.1,7.8 11,-1.6 20.8,-7.4 27.4,-16.4 13.8,-18.5 9.9,-44.8 -8.6,-58.6 -7.3,-5.4 -16,-8.2 -24.9,-8.2 -2,0 -4.1,0.1 -6.2,0.4 -11,1.7 -20.8,7.5 -27.5,16.5 -6.6,9 -9.4,20 -7.8,31.1 z m -0.2,-37.1 c 8.3,-11.1 20.4,-18.3 34.1,-20.3 13.6,-2.1 27.3,1.3 38.4,9.6 21.6,16 26.9,45.6 13.4,68.2 L 5338.4,4000 h -17.2 L 4213.3,3203.3 c -8,9 -18.6,15 -30.7,16.7 -2.6,0.4 -5.1,0.6 -7.7,0.6 -11,0 -21.7,-3.5 -30.8,-10.2 -11.1,-8.3 -18.3,-20.4 -20.4,-34.1 -2,-13.7 1.4,-27.3 9.7,-38.5"
         style="fill:#23467b;fill-opacity:1;fill-rule:nonzero;stroke:none"
         id="path98" />
      <path
         d="m 5296.9,2551.1 c 1.7,11.1 7.5,20.8 16.5,27.5 18.5,13.8 44.8,9.9 58.5,-8.6 6.7,-9 9.5,-20.1 7.8,-31.1 -1.6,-11.1 -7.5,-20.8 -16.4,-27.5 -7.3,-5.4 -16,-8.3 -24.9,-8.3 -2.1,0 -4.1,0.2 -6.2,0.5 -11,1.6 -20.8,7.5 -27.5,16.5 -6.6,8.9 -9.4,20 -7.8,31 z m -0.2,-37 c 8.3,-11.1 20.3,-18.4 34,-20.4 13.7,-2 27.4,1.4 38.5,9.7 11.2,8.2 18.4,20.3 20.4,34 1.8,12 -0.8,23.9 -7,34.1 l 617.4,440.6 v 12.4 l -623.2,-444.8 c -10.1,11.2 -24.2,17.1 -38.5,17.1 -10.8,0 -21.6,-3.3 -30.9,-10.2 -11.1,-8.2 -18.3,-20.3 -20.4,-34 -2,-13.7 1.4,-27.4 9.7,-38.5"
         style="fill:#23467b;fill-opacity:1;fill-rule:nonzero;stroke:none"
         id="path100" />
      <path
         d="m 5671.1,1823 c 1.6,11 7.5,20.8 16.5,27.5 18.5,13.7 44.8,9.8 58.5,-8.7 6.7,-9 9.4,-20 7.8,-31.1 -1.6,-11 -7.5,-20.8 -16.4,-27.4 -7.3,-5.5 -16,-8.3 -24.9,-8.3 -2.1,0 -4.1,0.1 -6.2,0.5 -11.1,1.6 -20.8,7.4 -27.5,16.4 -6.7,9 -9.4,20 -7.8,31.1 z m -0.2,-37.1 c 8.2,-11.1 20.3,-18.3 34,-20.3 13.7,-2.1 27.4,1.4 38.5,9.6 11.1,8.3 18.4,20.4 20.4,34.1 1.8,12 -0.9,23.8 -7,34.1 L 6000,2017 v 12.2 l -249,-177.7 c -10.1,11.2 -24.2,17.2 -38.6,17.2 -10.7,0 -21.5,-3.3 -30.8,-10.2 -11.1,-8.3 -18.4,-20.4 -20.4,-34.1 -2,-13.7 1.4,-27.3 9.7,-38.5"
         style="fill:#23467b;fill-opacity:1;fill-rule:nonzero;stroke:none"
         id="path102" />
      <path
         d="m 4964.2,2056.1 c 1.6,11.1 7.5,20.8 16.5,27.5 18.5,13.8 44.8,9.9 58.5,-8.6 6.7,-9 9.5,-20.1 7.8,-31.1 -1.6,-11.1 -7.5,-20.8 -16.4,-27.5 -7.3,-5.4 -16,-8.3 -24.9,-8.3 -2.1,0 -4.1,0.2 -6.2,0.5 -11.1,1.6 -20.8,7.5 -27.5,16.4 -6.7,9 -9.4,20.1 -7.8,31.1 z m -0.2,-37 c 8.2,-11.1 20.3,-18.4 34,-20.4 13.7,-2 27.4,1.4 38.5,9.7 11.1,8.2 18.4,20.3 20.4,34 1.8,12 -0.9,23.9 -7,34.1 l 950.1,683.2 v 12.4 l -955.9,-687.4 c -10.1,11.2 -24.2,17.1 -38.6,17.1 -10.7,0 -21.5,-3.3 -30.8,-10.2 -11.1,-8.2 -18.4,-20.3 -20.4,-34 -2,-13.7 1.4,-27.4 9.7,-38.5"
         style="fill:#23467b;fill-opacity:1;fill-rule:nonzero;stroke:none"
         id="path104" />
      <path
         d="m 4925.8,1823.5 c 18.5,13.7 44.8,9.8 58.5,-8.7 13.8,-18.5 9.9,-44.8 -8.6,-58.5 -18.5,-13.8 -44.8,-9.9 -58.6,8.6 -13.7,18.5 -9.8,44.8 8.7,58.6 z m -16.7,-64.5 c 17.1,-23 49.6,-27.8 72.6,-10.8 21.5,16 26.8,45.6 13.3,68.2 l 1005,724.2 v 12.3 L 4989.2,1824.6 c -10.1,11.2 -24.2,17.1 -38.5,17.1 -10.8,0 -21.6,-3.3 -30.9,-10.2 -22.9,-17 -27.7,-49.6 -10.7,-72.5"
         style="fill:#23467b;fill-opacity:1;fill-rule:nonzero;stroke:none"
         id="path106" />
      <path
         d="m 4416,2962.1 c 18.5,13.8 44.8,9.9 58.5,-8.6 6.7,-9 9.5,-20.1 7.8,-31.1 -1.6,-11.1 -7.5,-20.8 -16.4,-27.5 -7.5,-5.6 -16.3,-8.2 -24.9,-8.2 -12.8,0 -25.5,5.8 -33.7,16.9 -13.7,18.5 -9.9,44.8 8.7,58.5 z m -16.7,-64.5 c 17,-23 49.6,-27.8 72.5,-10.7 11.1,8.2 18.4,20.3 20.4,34 v 0.1 l 116.7,-5.7 1391.1,998.5 v 12.4 L 4605.9,2925.5 4492.7,2931 c -0.5,10.2 -3.9,20 -10.2,28.4 -10.1,13.7 -25.8,20.9 -41.6,20.9 -10.8,0 -21.6,-3.3 -30.9,-10.2 -22.9,-17 -27.8,-49.5 -10.7,-72.5"
         style="fill:#23467b;fill-opacity:1;fill-rule:nonzero;stroke:none"
         id="path108" />
      <path
         d="m 4022.1,2903.1 c 18.5,13.8 44.8,9.9 58.6,-8.6 13.7,-18.6 9.9,-44.8 -8.7,-58.6 -7.3,-5.4 -15.9,-8.2 -24.8,-8.2 -2.1,0 -4.2,0.1 -6.2,0.4 -11.1,1.6 -20.9,7.5 -27.5,16.5 -13.8,18.5 -9.9,44.8 8.6,58.5 z m -16.7,-64.5 c 8.3,-11.1 20.4,-18.4 34.1,-20.4 13.7,-2 27.4,1.4 38.5,9.7 21.6,16 26.9,45.6 13.3,68.2 l 399.1,296.3 243.7,-36 2,-0.3 1179.5,843.9 h -17.2 l -1164.8,-833.4 -245.8,36.3 -402.3,-298.6 c -10.1,11.1 -24.2,17 -38.5,17 -10.7,0 -21.6,-3.3 -30.8,-10.1 -23,-17.1 -27.8,-49.6 -10.8,-72.6"
         style="fill:#23467b;fill-opacity:1;fill-rule:nonzero;stroke:none"
         id="path110" />
      <path
         d="m 3721.9,3307.5 c 18.5,13.8 44.8,9.9 58.6,-8.6 13.7,-18.6 9.8,-44.8 -8.7,-58.6 -7.3,-5.4 -15.9,-8.3 -24.9,-8.3 -2,0 -4.1,0.2 -6.2,0.5 -11,1.6 -20.8,7.5 -27.4,16.5 -13.8,18.5 -9.9,44.7 8.6,58.5 z m -16.7,-64.5 c 8.3,-11.1 20.4,-18.4 34.1,-20.4 13.7,-2 27.3,1.4 38.5,9.7 21.5,16 26.8,45.6 13.3,68.2 l 399.1,296.3 243.7,-36 2,-0.3 614.3,439.5 H 5033 l -599.6,-429 -245.9,36.3 -402.2,-298.7 c -10.1,11.2 -24.2,17.1 -38.5,17.1 -10.8,0 -21.6,-3.3 -30.9,-10.2 -22.9,-17 -27.7,-49.6 -10.7,-72.5"
         style="fill:#23467b;fill-opacity:1;fill-rule:nonzero;stroke:none"
         id="path112" />
      <path
         d="m 4779.2,2472.8 c 18.6,13.8 44.8,9.9 58.6,-8.6 6.7,-9 9.4,-20.1 7.8,-31.1 -1.6,-11.1 -7.5,-20.8 -16.5,-27.5 -7.4,-5.6 -16.2,-8.2 -24.9,-8.2 -12.8,0 -25.4,5.8 -33.6,16.8 -13.8,18.6 -9.9,44.8 8.6,58.6 z m -16.6,-64.5 c 17,-23 49.6,-27.8 72.5,-10.7 11.1,8.2 18.4,20.3 20.4,34 2,13.7 -1.4,27.4 -9.7,38.5 -6.3,8.6 -14.9,14.6 -24.3,17.9 l 27.5,109.9 1151,826.3 v 12.3 L 4841.7,2605 l -1.5,-1.1 -28.4,-113.5 c -2.5,0.4 -5.1,0.6 -7.7,0.6 -10.7,0 -21.6,-3.3 -30.8,-10.2 -23,-17 -27.8,-49.6 -10.7,-72.5"
         style="fill:#23467b;fill-opacity:1;fill-rule:nonzero;stroke:none"
         id="path114" />
      <path
         d="m 5355.6,1800.5 c 9,6.6 20,9.4 31.1,7.8 11,-1.7 20.8,-7.5 27.5,-16.5 6.6,-9 9.4,-20 7.8,-31.1 -1.7,-11 -7.5,-20.8 -16.5,-27.4 -7.5,-5.6 -16.2,-8.3 -24.9,-8.3 -12.8,0 -25.4,5.9 -33.6,16.9 -13.8,18.5 -9.9,44.8 8.6,58.6 z m -16.7,-64.6 c 17.1,-22.9 49.6,-27.7 72.6,-10.7 11.1,8.3 18.3,20.4 20.4,34.1 2,13.7 -1.4,27.3 -9.7,38.5 -6.2,8.4 -14.7,14.5 -24.3,17.9 l 27.5,109.9 574.6,412.5 v 12.3 l -582,-417.8 -1.4,-1 -28.4,-113.5 c -2.6,0.4 -5.2,0.6 -7.7,0.6 -11.1,0 -21.8,-3.5 -30.8,-10.2 -23,-17.1 -27.8,-49.6 -10.8,-72.6"
         style="fill:#23467b;fill-opacity:1;fill-rule:nonzero;stroke:none"
         id="path116" />
      <path
         d="m 4620.1,2048.1 c 1.6,11 7.5,20.8 16.4,27.4 18.6,13.8 44.8,9.9 58.6,-8.6 6.7,-9 9.4,-20 7.8,-31.1 -1.6,-11 -7.5,-20.8 -16.5,-27.5 -7.3,-5.4 -15.9,-8.2 -24.8,-8.2 -2.1,0 -4.2,0.1 -6.2,0.4 -11.1,1.7 -20.8,7.5 -27.5,16.5 -6.7,9 -9.4,20 -7.8,31.1 z m -0.2,-37.1 c 8.2,-11.1 20.3,-18.3 34,-20.4 13.6,-2 27.4,1.4 38.5,9.7 11.1,8.3 18.4,20.3 20.4,34 1.8,12.1 -0.9,24 -7.1,34.2 l 393,291.8 42.8,256.6 858.5,614.2 v 12.3 l -866,-619.6 -1.6,-1.2 -42.9,-256.7 -389.6,-289.2 c -10.1,11.1 -24.2,17.1 -38.5,17.1 -10.7,0 -21.5,-3.4 -30.8,-10.2 -11.1,-8.3 -18.4,-20.4 -20.4,-34.1 -2,-13.7 1.4,-27.4 9.7,-38.5"
         style="fill:#23467b;fill-opacity:1;fill-rule:nonzero;stroke:none"
         id="path118" />
      <path
         d="m 4301.7,2585.5 c 9,6.7 20,9.4 31.1,7.8 11,-1.6 20.8,-7.5 27.4,-16.4 13.8,-18.6 9.9,-44.8 -8.6,-58.6 -7.5,-5.6 -16.2,-8.2 -24.9,-8.2 -12.8,0 -25.5,5.8 -33.7,16.9 -13.7,18.5 -9.8,44.8 8.7,58.5 z M 4285,2521 c 17.1,-23 49.6,-27.7 72.5,-10.7 21.6,16 26.9,45.6 13.4,68.1 L 6000,3752.8 v 12.4 L 4364.9,2586.5 c -8,8.9 -18.6,14.9 -30.7,16.7 -2.5,0.4 -5.1,0.6 -7.7,0.6 -11,0 -21.7,-3.6 -30.8,-10.3 -22.9,-17 -27.7,-49.5 -10.7,-72.5"
         style="fill:#23467b;fill-opacity:1;fill-rule:nonzero;stroke:none"
         id="path120" />
      <path
         d="m 4616,2643 c 1.6,11.1 7.5,20.9 16.5,27.5 18.5,13.8 44.7,9.9 58.5,-8.6 6.7,-9 9.4,-20 7.8,-31.1 -1.6,-11.1 -7.5,-20.8 -16.5,-27.5 -7.3,-5.4 -15.9,-8.2 -24.8,-8.2 -2.1,0 -4.2,0.1 -6.2,0.4 -11.1,1.6 -20.8,7.5 -27.5,16.5 -6.7,8.9 -9.4,20 -7.8,31 z m -0.2,-37 c 8.2,-11.1 20.3,-18.4 34,-20.4 13.7,-2 27.4,1.4 38.5,9.7 11.1,8.2 18.4,20.3 20.4,34 1.8,12 -0.9,23.9 -7,34.2 L 6000,3596.4 v 12.2 l -1304.1,-937 c -10.1,11.2 -24.3,17.2 -38.6,17.2 -10.7,0 -21.5,-3.4 -30.8,-10.2 -11.1,-8.3 -18.4,-20.4 -20.4,-34.1 -2,-13.7 1.4,-27.4 9.7,-38.5"
         style="fill:#23467b;fill-opacity:1;fill-rule:nonzero;stroke:none"
         id="path122" />
      <path
         d="m 4720.2,3377.6 c 18.5,13.8 44.8,9.9 58.5,-8.6 13.8,-18.6 9.9,-44.8 -8.6,-58.6 -7.5,-5.6 -16.2,-8.2 -24.9,-8.2 -12.8,0 -25.5,5.8 -33.7,16.9 -13.7,18.5 -9.8,44.8 8.7,58.5 z m -16.7,-64.5 c 17,-23 49.6,-27.8 72.5,-10.7 21.6,16 26.9,45.6 13.4,68.1 l 882.1,629.5 h -17.3 l -870.6,-621.3 c -10.1,11.2 -24.2,17.1 -38.5,17.1 -10.8,0 -21.6,-3.3 -30.9,-10.2 -22.9,-17 -27.7,-49.5 -10.7,-72.5"
         style="fill:#23467b;fill-opacity:1;fill-rule:nonzero;stroke:none"
         id="path124" />
      <path
         d="m 4361.6,3810.9 c 1.7,11.1 7.5,20.9 16.5,27.5 9,6.7 20,9.5 31,7.8 11.1,-1.6 20.9,-7.5 27.5,-16.4 6.7,-9 9.5,-20 7.8,-31.1 -1.6,-11.1 -7.5,-20.8 -16.4,-27.5 -7.5,-5.5 -16.3,-8.2 -24.9,-8.2 -12.8,0 -25.5,5.8 -33.7,16.9 -6.6,8.9 -9.4,20 -7.8,31 z m -0.2,-37 c 17,-23 49.6,-27.8 72.5,-10.7 11.1,8.2 18.4,20.3 20.4,34 1.8,12 -0.9,23.9 -7,34.1 l 236.4,168.7 h -17.4 l -225,-160.6 c -8,8.9 -18.6,14.9 -30.7,16.7 -2.6,0.4 -5.1,0.6 -7.7,0.6 -11,0 -21.7,-3.5 -30.8,-10.3 -11.1,-8.2 -18.3,-20.3 -20.4,-34 -2,-13.7 1.4,-27.4 9.7,-38.5"
         style="fill:#23467b;fill-opacity:1;fill-rule:nonzero;stroke:none"
         id="path126" />
      <path
         d="m 4133.6,3174.9 c 1.7,11 7.5,20.8 16.5,27.4 9,6.7 20,9.5 31.1,7.8 11,-1.6 20.8,-7.4 27.4,-16.4 13.8,-18.5 9.9,-44.8 -8.6,-58.6 -7.3,-5.4 -16,-8.2 -24.9,-8.2 -2,0 -4.1,0.1 -6.2,0.4 -11,1.7 -20.8,7.5 -27.5,16.5 -6.6,9 -9.4,20 -7.8,31.1 z m -0.2,-37.1 c 8.3,-11.1 20.4,-18.3 34.1,-20.3 13.6,-2.1 27.3,1.3 38.4,9.6 21.6,16 26.9,45.6 13.4,68.2 L 5338.4,4000 h -17.2 L 4213.3,3203.3 c -8,9 -18.6,15 -30.7,16.7 -2.6,0.4 -5.1,0.6 -7.7,0.6 -11,0 -21.7,-3.5 -30.8,-10.2 -11.1,-8.3 -18.3,-20.4 -20.4,-34.1 -2,-13.7 1.4,-27.3 9.7,-38.5"
         style="fill:#23467b;fill-opacity:1;fill-rule:nonzero;stroke:none"
         id="path128" />
      <path
         d="m 5296.9,2551.1 c 1.7,11.1 7.5,20.8 16.5,27.5 18.5,13.8 44.8,9.9 58.5,-8.6 6.7,-9 9.5,-20.1 7.8,-31.1 -1.6,-11.1 -7.5,-20.8 -16.4,-27.5 -7.3,-5.4 -16,-8.3 -24.9,-8.3 -2.1,0 -4.1,0.2 -6.2,0.5 -11,1.6 -20.8,7.5 -27.5,16.5 -6.6,8.9 -9.4,20 -7.8,31 z m -0.2,-37 c 8.3,-11.1 20.3,-18.4 34,-20.4 13.7,-2 27.4,1.4 38.5,9.7 11.2,8.2 18.4,20.3 20.4,34 1.8,12 -0.8,23.9 -7,34.1 l 617.4,440.6 v 12.4 l -623.2,-444.8 c -10.1,11.2 -24.2,17.1 -38.5,17.1 -10.8,0 -21.6,-3.3 -30.9,-10.2 -11.1,-8.2 -18.3,-20.3 -20.4,-34 -2,-13.7 1.4,-27.4 9.7,-38.5"
         style="fill:#23467b;fill-opacity:1;fill-rule:nonzero;stroke:none"
         id="path130" />
      <path
         d="m 5671.1,1823 c 1.6,11 7.5,20.8 16.5,27.5 18.5,13.7 44.8,9.8 58.5,-8.7 6.7,-9 9.4,-20 7.8,-31.1 -1.6,-11 -7.5,-20.8 -16.4,-27.4 -7.3,-5.5 -16,-8.3 -24.9,-8.3 -2.1,0 -4.1,0.1 -6.2,0.5 -11.1,1.6 -20.8,7.4 -27.5,16.4 -6.7,9 -9.4,20 -7.8,31.1 z m -0.2,-37.1 c 8.2,-11.1 20.3,-18.3 34,-20.3 13.7,-2.1 27.4,1.4 38.5,9.6 11.1,8.3 18.4,20.4 20.4,34.1 1.8,12 -0.9,23.8 -7,34.1 L 6000,2017 v 12.2 l -249,-177.7 c -10.1,11.2 -24.2,17.2 -38.6,17.2 -10.7,0 -21.5,-3.3 -30.8,-10.2 -11.1,-8.3 -18.4,-20.4 -20.4,-34.1 -2,-13.7 1.4,-27.3 9.7,-38.5"
         style="fill:#23467b;fill-opacity:1;fill-rule:nonzero;stroke:none"
         id="path132" />
      <path
         d="m 4964.2,2056.1 c 1.6,11.1 7.5,20.8 16.5,27.5 18.5,13.8 44.8,9.9 58.5,-8.6 6.7,-9 9.5,-20.1 7.8,-31.1 -1.6,-11.1 -7.5,-20.8 -16.4,-27.5 -7.3,-5.4 -16,-8.3 -24.9,-8.3 -2.1,0 -4.1,0.2 -6.2,0.5 -11.1,1.6 -20.8,7.5 -27.5,16.4 -6.7,9 -9.4,20.1 -7.8,31.1 z m -0.2,-37 c 8.2,-11.1 20.3,-18.4 34,-20.4 13.7,-2 27.4,1.4 38.5,9.7 11.1,8.2 18.4,20.3 20.4,34 1.8,12 -0.9,23.9 -7,34.1 l 950.1,683.2 v 12.4 l -955.9,-687.4 c -10.1,11.2 -24.2,17.1 -38.6,17.1 -10.7,0 -21.5,-3.3 -30.8,-10.2 -11.1,-8.2 -18.4,-20.3 -20.4,-34 -2,-13.7 1.4,-27.4 9.7,-38.5"
         style="fill:#23467b;fill-opacity:1;fill-rule:nonzero;stroke:none"
         id="path134" />
      <path
         d="m 4925.8,1823.5 c 18.5,13.7 44.8,9.8 58.5,-8.7 13.8,-18.5 9.9,-44.8 -8.6,-58.5 -18.5,-13.8 -44.8,-9.9 -58.6,8.6 -13.7,18.5 -9.8,44.8 8.7,58.6 z m -16.7,-64.5 c 17.1,-23 49.6,-27.8 72.6,-10.8 21.5,16 26.8,45.6 13.3,68.2 l 1005,724.2 v 12.3 L 4989.2,1824.6 c -10.1,11.2 -24.2,17.1 -38.5,17.1 -10.8,0 -21.6,-3.3 -30.9,-10.2 -22.9,-17 -27.7,-49.6 -10.7,-72.5"
         style="fill:#23467b;fill-opacity:1;fill-rule:nonzero;stroke:none"
         id="path136" />
      <path
         d="m 5486.9,1495.5 c 18.5,13.7 44.8,9.8 58.5,-8.7 13.8,-18.5 9.9,-44.8 -8.6,-58.5 -18.5,-13.8 -44.8,-9.9 -58.6,8.6 -13.7,18.5 -9.8,44.8 8.7,58.6 z m -16.7,-64.5 c 17.1,-23 49.6,-27.8 72.6,-10.8 21.5,16 26.8,45.6 13.3,68.2 l 443.9,319.9 v 12.3 l -449.7,-324 c -10.1,11.2 -24.2,17.1 -38.5,17.1 -10.8,0 -21.6,-3.3 -30.9,-10.2 -22.9,-17 -27.7,-49.6 -10.7,-72.5"
         style="fill:#23467b;fill-opacity:1;fill-rule:nonzero;stroke:none"
         id="path138" />
      <path
         d="m 4416,2962.1 c 18.5,13.8 44.8,9.9 58.5,-8.6 6.7,-9 9.5,-20.1 7.8,-31.1 -1.6,-11.1 -7.5,-20.8 -16.4,-27.5 -7.5,-5.6 -16.3,-8.2 -24.9,-8.2 -12.8,0 -25.5,5.8 -33.7,16.9 -13.7,18.5 -9.9,44.8 8.7,58.5 z m -16.7,-64.5 c 17,-23 49.6,-27.8 72.5,-10.7 11.1,8.2 18.4,20.3 20.4,34 v 0.1 l 116.7,-5.7 1391.1,998.5 v 12.4 L 4605.9,2925.5 4492.7,2931 c -0.5,10.2 -3.9,20 -10.2,28.4 -10.1,13.7 -25.8,20.9 -41.6,20.9 -10.8,0 -21.6,-3.3 -30.9,-10.2 -22.9,-17 -27.8,-49.5 -10.7,-72.5"
         style="fill:#23467b;fill-opacity:1;fill-rule:nonzero;stroke:none"
         id="path140" />
      <path
         d="m 4022.1,2903.1 c 18.5,13.8 44.8,9.9 58.6,-8.6 13.7,-18.6 9.9,-44.8 -8.7,-58.6 -7.3,-5.4 -15.9,-8.2 -24.8,-8.2 -2.1,0 -4.2,0.1 -6.2,0.4 -11.1,1.6 -20.9,7.5 -27.5,16.5 -13.8,18.5 -9.9,44.8 8.6,58.5 z m -16.7,-64.5 c 8.3,-11.1 20.4,-18.4 34.1,-20.4 13.7,-2 27.4,1.4 38.5,9.7 21.6,16 26.9,45.6 13.3,68.2 l 399.1,296.3 243.7,-36 2,-0.3 1179.5,843.9 h -17.2 l -1164.8,-833.4 -245.8,36.3 -402.3,-298.6 c -10.1,11.1 -24.2,17 -38.5,17 -10.7,0 -21.6,-3.3 -30.8,-10.1 -23,-17.1 -27.8,-49.6 -10.8,-72.6"
         style="fill:#23467b;fill-opacity:1;fill-rule:nonzero;stroke:none"
         id="path142" />
      <path
         d="m 3721.9,3307.5 c 18.5,13.8 44.8,9.9 58.6,-8.6 13.7,-18.6 9.8,-44.8 -8.7,-58.6 -7.3,-5.4 -15.9,-8.3 -24.9,-8.3 -2,0 -4.1,0.2 -6.2,0.5 -11,1.6 -20.8,7.5 -27.4,16.5 -13.8,18.5 -9.9,44.7 8.6,58.5 z m -16.7,-64.5 c 8.3,-11.1 20.4,-18.4 34.1,-20.4 13.7,-2 27.3,1.4 38.5,9.7 21.5,16 26.8,45.6 13.3,68.2 l 399.1,296.3 243.7,-36 2,-0.3 614.3,439.5 H 5033 l -599.6,-429 -245.9,36.3 -402.2,-298.7 c -10.1,11.2 -24.2,17.1 -38.5,17.1 -10.8,0 -21.6,-3.3 -30.9,-10.2 -22.9,-17 -27.7,-49.6 -10.7,-72.5"
         style="fill:#23467b;fill-opacity:1;fill-rule:nonzero;stroke:none"
         id="path144" />
      <path
         d="m 4779.2,2472.8 c 18.6,13.8 44.8,9.9 58.6,-8.6 6.7,-9 9.4,-20.1 7.8,-31.1 -1.6,-11.1 -7.5,-20.8 -16.5,-27.5 -7.4,-5.6 -16.2,-8.2 -24.9,-8.2 -12.8,0 -25.4,5.8 -33.6,16.8 -13.8,18.6 -9.9,44.8 8.6,58.6 z m -16.6,-64.5 c 17,-23 49.6,-27.8 72.5,-10.7 11.1,8.2 18.4,20.3 20.4,34 2,13.7 -1.4,27.4 -9.7,38.5 -6.3,8.6 -14.9,14.6 -24.3,17.9 l 27.5,109.9 1151,826.3 v 12.3 L 4841.7,2605 l -1.5,-1.1 -28.4,-113.5 c -2.5,0.4 -5.1,0.6 -7.7,0.6 -10.7,0 -21.6,-3.3 -30.8,-10.2 -23,-17 -27.8,-49.6 -10.7,-72.5"
         style="fill:#23467b;fill-opacity:1;fill-rule:nonzero;stroke:none"
         id="path146" />
      <path
         d="m 5355.6,1800.5 c 9,6.6 20,9.4 31.1,7.8 11,-1.7 20.8,-7.5 27.5,-16.5 6.6,-9 9.4,-20 7.8,-31.1 -1.7,-11 -7.5,-20.8 -16.5,-27.4 -7.5,-5.6 -16.2,-8.3 -24.9,-8.3 -12.8,0 -25.4,5.9 -33.6,16.9 -13.8,18.5 -9.9,44.8 8.6,58.6 z m -16.7,-64.6 c 17.1,-22.9 49.6,-27.7 72.6,-10.7 11.1,8.3 18.3,20.4 20.4,34.1 2,13.7 -1.4,27.3 -9.7,38.5 -6.2,8.4 -14.7,14.5 -24.3,17.9 l 27.5,109.9 574.6,412.5 v 12.3 l -582,-417.8 -1.4,-1 -28.4,-113.5 c -2.6,0.4 -5.2,0.6 -7.7,0.6 -11.1,0 -21.8,-3.5 -30.8,-10.2 -23,-17.1 -27.8,-49.6 -10.8,-72.6"
         style="fill:#23467b;fill-opacity:1;fill-rule:nonzero;stroke:none"
         id="path148" />
      <path
         d="m 5755.6,1350.1 c 9,6.6 20,9.4 31.1,7.8 11,-1.7 20.8,-7.5 27.5,-16.5 6.6,-9 9.4,-20 7.8,-31.1 -1.7,-11 -7.5,-20.8 -16.5,-27.4 -7.5,-5.6 -16.2,-8.3 -24.9,-8.3 -12.8,0 -25.4,5.9 -33.6,16.9 -13.8,18.5 -9.9,44.8 8.6,58.6 z m -16.7,-64.6 c 17.1,-22.9 49.6,-27.7 72.6,-10.7 11.1,8.3 18.3,20.4 20.4,34.1 2,13.7 -1.4,27.3 -9.7,38.5 -6.2,8.4 -14.7,14.5 -24.3,17.9 l 27.5,109.9 174.6,125.3 v 12.4 l -182,-130.7 -1.4,-1 -28.4,-113.5 c -2.6,0.4 -5.2,0.6 -7.7,0.6 -11.1,0 -21.8,-3.5 -30.8,-10.2 -23,-17.1 -27.8,-49.6 -10.8,-72.6"
         style="fill:#23467b;fill-opacity:1;fill-rule:nonzero;stroke:none"
         id="path150" />
      <path
         d="m 3816.9,3890.8 c 18.5,13.7 44.8,9.8 58.5,-8.7 13.8,-18.5 9.9,-44.8 -8.6,-58.5 -18.5,-13.8 -44.8,-9.9 -58.6,8.6 -13.7,18.5 -9.8,44.8 8.7,58.6 z m -16.7,-64.5 c 17.1,-23 49.6,-27.8 72.6,-10.8 21.5,16 26.8,45.6 13.3,68.2 l 161.4,116.3 h -17.2 l -150,-108.1 c -10.1,11.2 -24.2,17.1 -38.5,17.1 -10.8,0 -21.6,-3.3 -30.9,-10.2 -22.9,-17 -27.7,-49.6 -10.7,-72.5"
         style="fill:#23467b;fill-opacity:1;fill-rule:nonzero;stroke:none"
         id="path152" />
      <path
         d="m 3475.8,3945.5 c 18.5,13.7 44.8,9.8 58.5,-8.7 13.8,-18.5 9.9,-44.8 -8.6,-58.5 -18.5,-13.8 -44.8,-9.9 -58.6,8.6 -13.7,18.5 -9.8,44.8 8.7,58.6 z m -16.7,-64.5 c 17.1,-23 49.6,-27.8 72.6,-10.8 21.5,16 26.8,45.6 13.3,68.2 l 85.5,61.6 h -17.2 l -74.1,-53.4 c -10.1,11.2 -24.2,17.1 -38.5,17.1 -10.8,0 -21.6,-3.3 -30.9,-10.2 -22.9,-17 -27.7,-49.6 -10.7,-72.5"
         style="fill:#23467b;fill-opacity:1;fill-rule:nonzero;stroke:none"
         id="path154" />
      <path
         d="m 4085.6,3745.5 c 9,6.6 20,9.4 31.1,7.8 11,-1.7 20.8,-7.5 27.5,-16.5 6.6,-9 9.4,-20 7.8,-31.1 -1.7,-11 -7.5,-20.8 -16.5,-27.4 -7.5,-5.6 -16.2,-8.3 -24.9,-8.3 -12.8,0 -25.4,5.9 -33.6,16.9 -13.8,18.5 -9.9,44.8 8.6,58.6 z m -16.7,-64.6 c 17.1,-22.9 49.6,-27.7 72.6,-10.7 11.1,8.3 18.3,20.4 20.4,34.1 2,13.7 -1.4,27.3 -9.7,38.5 -6.2,8.4 -14.7,14.5 -24.3,17.9 l 27.5,109.9 180.3,129.4 h -17.2 l -170.5,-122.4 -1.4,-1 -28.4,-113.5 c -2.6,0.4 -5.2,0.6 -7.7,0.6 -11.1,0 -21.8,-3.5 -30.8,-10.2 -23,-17.1 -27.8,-49.6 -10.8,-72.6"
         style="fill:#23467b;fill-opacity:1;fill-rule:nonzero;stroke:none"
         id="path156" />
      <path
         d="m 4620.1,2048.1 c 1.6,11 7.5,20.8 16.4,27.4 18.6,13.8 44.8,9.9 58.6,-8.6 6.7,-9 9.4,-20 7.8,-31.1 -1.6,-11 -7.5,-20.8 -16.5,-27.5 -7.3,-5.4 -15.9,-8.2 -24.8,-8.2 -2.1,0 -4.2,0.1 -6.2,0.4 -11.1,1.7 -20.8,7.5 -27.5,16.5 -6.7,9 -9.4,20 -7.8,31.1 z m -0.2,-37.1 c 8.2,-11.1 20.3,-18.3 34,-20.4 13.6,-2 27.4,1.4 38.5,9.7 11.1,8.3 18.4,20.3 20.4,34 1.8,12.1 -0.9,24 -7.1,34.2 l 393,291.8 42.8,256.6 858.5,614.2 v 12.3 l -866,-619.6 -1.6,-1.2 -42.9,-256.7 -389.6,-289.2 c -10.1,11.1 -24.2,17.1 -38.5,17.1 -10.7,0 -21.5,-3.4 -30.8,-10.2 -11.1,-8.3 -18.4,-20.4 -20.4,-34.1 -2,-13.7 1.4,-27.4 9.7,-38.5"
         style="fill:#23467b;fill-opacity:1;fill-rule:nonzero;stroke:none"
         id="path158" />
    </g>
  </g>
</svg>
